<svg xmlns="http://www.w3.org/2000/svg"  viewBox="0 0 18 13.909">
  <path id="book-open-blank-variant" d="M17.364,4.909A9.658,9.658,0,0,0,14.5,4.5,7.609,7.609,0,0,0,10,5.727,7.609,7.609,0,0,0,5.5,4.5,7.609,7.609,0,0,0,1,5.727V17.714a.44.44,0,0,0,.409.409c.082,0,.123-.041.2-.041a9.986,9.986,0,0,1,3.886-.9A7.609,7.609,0,0,1,10,18.409a9.855,9.855,0,0,1,4.5-1.227,8.328,8.328,0,0,1,3.886.859.369.369,0,0,0,.2.041A.44.44,0,0,0,19,17.673V5.727a5.58,5.58,0,0,0-1.636-.818m0,11.045a9.508,9.508,0,0,0-2.864-.409A9.855,9.855,0,0,0,10,16.773V7.364a9.855,9.855,0,0,1,4.5-1.227,9.508,9.508,0,0,1,2.864.409Z" transform="translate(-1 -4.5)" />
</svg>
