<svg xmlns="http://www.w3.org/2000/svg" width="26.667" height="31.548" viewBox="0 0 26.667 31.548">
  <g id="medal" transform="translate(-39.592)">
    <path id="Path_7767" data-name="Path 7767" d="M46.482,221.248l-6.89,12.98,6.256-.578,3.028,5.506,6.89-12.98Z" transform="translate(0 -207.609)" fill="#e95454"/>
    <g id="Group_11494" data-name="Group 11494" transform="translate(45.284 13.639)">
      <path id="Path_7768" data-name="Path 7768" d="M133.907,267.449a.88.88,0,0,0-.413-1.126l-.4-.211a.848.848,0,0,1,.816-1.486l1.12.595a.707.707,0,0,0,.959-.3l.028-.053a.669.669,0,0,0-.257-.943l-3.352-1.778a.882.882,0,0,1-.418-1.127.85.85,0,0,1,1.168-.391l3.109,1.65a.715.715,0,0,0,.964-.3l.018-.045,0-.01a.745.745,0,0,0-.307-1.013l-1.744-.925a.882.882,0,0,1-.415-1.132.853.853,0,0,1,1.168-.391l1.926,1.023a.719.719,0,0,0,.976-.331l0-.01,0-.01a.718.718,0,0,0-.273-.994l-2.078-1.1a.88.88,0,0,1-.413-1.124.85.85,0,0,1,1.168-.391l5.127,2.721-6.89,12.98-1.9-3.451A.807.807,0,0,0,133.907,267.449Z" transform="translate(-131.92 -253.321)" fill="#ed6362"/>
      <path id="Path_7769" data-name="Path 7769" d="M219.084,221.248l6.89,12.98-6.256-.578-3.028,5.506-6.89-12.98Z" transform="translate(-204.999 -221.248)" fill="#ed6362"/>
    </g>
    <path id="Path_7770" data-name="Path 7770" d="M218.31,267.464a.88.88,0,0,1,.413-1.126l.4-.211a.848.848,0,0,0-.816-1.486l-1.12.595a.707.707,0,0,1-.959-.3l-.028-.053a.669.669,0,0,1,.257-.943l3.353-1.779a.882.882,0,0,0,.418-1.127.85.85,0,0,0-1.168-.391l-3.109,1.65a.715.715,0,0,1-.964-.3l-.018-.045,0-.01a.745.745,0,0,1,.307-1.013l1.744-.925a.882.882,0,0,0,.415-1.132.853.853,0,0,0-1.168-.391l-1.928,1.025a.719.719,0,0,1-.976-.331,4751899424.853,4751899424.853,0,0,0-.01-.02.718.718,0,0,1,.273-.994l2.078-1.1a.88.88,0,0,0,.413-1.124.85.85,0,0,0-1.168-.391l-5.127,2.721,6.89,12.98,1.9-3.451A.821.821,0,0,1,218.31,267.464Z" transform="translate(-159.73 -239.697)" fill="#e95454"/>
    <circle id="Ellipse_414" data-name="Ellipse 414" cx="11.512" cy="11.512" r="11.512" transform="translate(41.414 0)" fill="#ffcc5b"/>
    <path id="Path_7771" data-name="Path 7771" d="M82.727,23.343h-7.3A1.037,1.037,0,0,1,74.4,22.31l.008-.071v-.016a1.078,1.078,0,0,1,1.08-1.088h5.056a1.279,1.279,0,0,0,1.3-1.167,1.236,1.236,0,0,0-1.23-1.293H75.259a1.042,1.042,0,0,1-1.025-1.088v-.032a1.042,1.042,0,0,1,1.025-1.088h5.6a1.276,1.276,0,0,0,1.293-1.159,1.232,1.232,0,0,0-1.23-1.293h-4.1a11.51,11.51,0,0,0,0,21.292h5.211a1.276,1.276,0,0,0,1.293-1.159,1.231,1.231,0,0,0-1.23-1.292H76.169a1.227,1.227,0,0,1-1.225-1.293A1.274,1.274,0,0,1,76.238,30.4h2.3a1.228,1.228,0,0,0-.036-2.456H75.017a1.024,1.024,0,0,1-1.025-1.033v-.087a.97.97,0,0,1,.97-1.033h7.694a1.278,1.278,0,0,0,1.3-1.159A1.232,1.232,0,0,0,82.727,23.343Z" transform="translate(-28.241 -13.152)" fill="#fdbc4b"/>
    <path id="Path_7772" data-name="Path 7772" d="M130.8,69.873a8.217,8.217,0,1,1,8.217-8.216A8.227,8.227,0,0,1,130.8,69.873Z" transform="translate(-77.876 -50.146)" fill="#ffdb70"/>
    <path id="Path_7773" data-name="Path 7773" d="M237.269,62.018a8.221,8.221,0,0,0-7.746-8.194h-.765a.974.974,0,0,0-.986.884.94.94,0,0,0,.938.986h4.521a.935.935,0,0,1,.934.986.972.972,0,0,1-.987.886h-1.753a.937.937,0,0,0,.027,1.873h2.657a.781.781,0,0,1,.781.787v.065a.739.739,0,0,1-.74.787h-5.868a.975.975,0,0,0-.992.884.94.94,0,0,0,.938.986h5.563a.79.79,0,0,1,.787.787l-.006.054V63.8a.823.823,0,0,1-.824.83h-3.857a.976.976,0,0,0-.992.89.943.943,0,0,0,.938.986h4.084a.8.8,0,0,1,.781.83v.024a.8.8,0,0,1-.781.83h-4.274a.974.974,0,0,0-.986.884.939.939,0,0,0,.938.986h1.127A8.231,8.231,0,0,0,237.269,62.018Z" transform="translate(-176.126 -50.506)" fill="#fff" opacity="0.2"/>
    <path id="Path_7774" data-name="Path 7774" d="M166.2,93.78h-4l-1.236-3.8a.531.531,0,0,0-1.009,0l-1.235,3.8h-4a.53.53,0,0,0-.312.96l3.233,2.349-1.235,3.8a.531.531,0,0,0,.817.593l3.233-2.349,3.233,2.349a.531.531,0,0,0,.817-.593l-1.235-3.8,3.233-2.349A.531.531,0,0,0,166.2,93.78Z" transform="translate(-107.543 -84.088)" fill="#ec9922"/>
  </g>
</svg>
