<svg xmlns="http://www.w3.org/2000/svg" xmlns:xlink="http://www.w3.org/1999/xlink" viewBox="0 0 561.86 499.013">
  <defs>
    <clipPath id="clip-path">
      <path id="Path_2070" data-name="Path 2070" d="M620.971,423.023c-1.032-2.492,2.411-6.4,8.145-9.7-7.765-1.933-13.281-5.533-12.727-8.557s6.983-4.447,14.932-3.513c-4.181-5.1-6.022-9.98-4.175-11.946,2.351-2.514,9.812.657,16.659,7.059,5.973,5.593,9.5,11.815,8.753,14.981-.418,3.225-5.918,7.8-13.477,10.925C630.386,425.874,622.29,426.21,620.971,423.023Z" transform="translate(-616.35 -388.442)" fill="#4756df"/>
    </clipPath>
  </defs>
  <g id="Group_11553" data-name="Group 11553" transform="translate(-39 -154.987)">
    <g id="Layer_6" data-name="Layer 6" transform="translate(-235.86 19.987)">
      <path id="Path_2042" data-name="Path 2042" d="M759.884,163.92h6.261a89.217,89.217,0,0,1,89.2,89.217v170.2H670.64v-170.2a89.217,89.217,0,0,1,89.244-89.217Z" transform="translate(-180.879 -13.217)" fill="#f49935"/>
      <path id="Path_2043" data-name="Path 2043" d="M831.669,451.172v105.1H749.712v-105.1h81.957M833.841,449h-86.3V558.448h86.3Z" transform="translate(-216.024 -143.504)" fill="#ca7358"/>
      <rect id="Rectangle_119" data-name="Rectangle 119" width="86.301" height="22.626" transform="translate(531.516 305.49)" fill="#ca7358"/>
      <path id="Path_2044" data-name="Path 2044" d="M703.342,346.5V508.967h-49.33V346.5h49.33m2.172-2.172H651.84V511.139h53.674Z" transform="translate(-172.287 -95.668)" fill="#ca7358"/>
      <path id="Path_2045" data-name="Path 2045" d="M970.616,285.932V480.759H905.5V285.932h65.114m2.172-2.172H903.33V482.931h69.458Z" transform="translate(-287.223 -67.986)" fill="#ca7358"/>
      <path id="Path_2046" data-name="Path 2046" d="M947.839,332.7h.624a8.894,8.894,0,0,1,8.894,8.894v20.047H938.94V341.594a8.894,8.894,0,0,1,8.9-8.894Z" transform="translate(-303.498 -90.353)" fill="#ca7358"/>
      <line id="Line_460" data-name="Line 460" x2="22.626" transform="translate(633.341 258.132)" fill="none" stroke="#ffb7d5" stroke-linecap="round" stroke-linejoin="round" stroke-width="4"/>
      <path id="Path_2047" data-name="Path 2047" d="M947.839,428.32h.624a8.894,8.894,0,0,1,8.894,8.894v20.047H938.94V437.214A8.894,8.894,0,0,1,947.839,428.32Z" transform="translate(-303.498 -134.053)" fill="#f5ebdd"/>
      <line id="Line_461" data-name="Line 461" x2="22.626" transform="translate(633.341 310.051)" fill="none" stroke="#ffb7d5" stroke-linecap="round" stroke-linejoin="round" stroke-width="4"/>
      <path id="Path_2048" data-name="Path 2048" d="M947.839,523.94h.624a8.894,8.894,0,0,1,8.894,8.894v20.047H938.94V532.834a8.894,8.894,0,0,1,8.894-8.894Z" transform="translate(-303.498 -177.753)" fill="#f5ebdd"/>
      <line id="Line_462" data-name="Line 462" x2="22.626" transform="translate(633.341 361.971)" fill="none" stroke="#ffb7d5" stroke-linecap="round" stroke-linejoin="round" stroke-width="4"/>
      <path id="Path_2049" data-name="Path 2049" d="M947.839,619.56h.624a8.894,8.894,0,0,1,8.894,8.894v18.418H938.94V628.454A8.894,8.894,0,0,1,947.839,619.56Z" transform="translate(-303.498 -221.453)" fill="#30242a"/>
      <rect id="Rectangle_120" data-name="Rectangle 120" width="69.458" height="8.682" transform="translate(616.107 215.774)" fill="#ca7358"/>
      <rect id="Rectangle_121" data-name="Rectangle 121" width="53.674" height="8.682" transform="translate(479.553 244.454)" fill="#ca7358"/>
      <rect id="Rectangle_122" data-name="Rectangle 122" width="18.418" height="23.679" transform="translate(547.04 348.641)" fill="#f5ebdd"/>
      <line id="Line_463" data-name="Line 463" x2="22.631" transform="translate(544.933 359.164)" fill="none" stroke="#ffb7d5" stroke-linecap="round" stroke-linejoin="round" stroke-width="4"/>
      <line id="Line_464" data-name="Line 464" y1="14.21" transform="translate(556.249 359.164)" fill="none" stroke="#ffb7d5" stroke-linecap="round" stroke-linejoin="round" stroke-width="4"/>
      <rect id="Rectangle_123" data-name="Rectangle 123" width="18.418" height="23.679" transform="translate(547.04 391.406)" fill="#ca7358"/>
      <line id="Line_465" data-name="Line 465" x2="22.631" transform="translate(544.933 401.929)" fill="none" stroke="#ffb7d5" stroke-linecap="round" stroke-linejoin="round" stroke-width="4"/>
      <line id="Line_466" data-name="Line 466" y1="14.21" transform="translate(556.249 401.929)" fill="none" stroke="#ffb7d5" stroke-linecap="round" stroke-linejoin="round" stroke-width="4"/>
      <rect id="Rectangle_124" data-name="Rectangle 124" width="18.418" height="23.679" transform="translate(581.769 348.641)" fill="#30242a"/>
      <line id="Line_467" data-name="Line 467" x2="22.626" transform="translate(579.667 359.164)" fill="none" stroke="#ffb7d5" stroke-linecap="round" stroke-linejoin="round" stroke-width="4"/>
      <line id="Line_468" data-name="Line 468" y1="14.21" transform="translate(590.978 359.164)" fill="none" stroke="#ffb7d5" stroke-linecap="round" stroke-linejoin="round" stroke-width="4"/>
      <rect id="Rectangle_125" data-name="Rectangle 125" width="18.418" height="23.679" transform="translate(581.769 391.406)" fill="#f5ebdd"/>
      <line id="Line_469" data-name="Line 469" x2="22.626" transform="translate(579.667 401.929)" fill="none" stroke="#ffb7d5" stroke-linecap="round" stroke-linejoin="round" stroke-width="4"/>
      <line id="Line_470" data-name="Line 470" y1="14.21" transform="translate(590.978 401.929)" fill="none" stroke="#ffb7d5" stroke-linecap="round" stroke-linejoin="round" stroke-width="4"/>
      <circle id="Ellipse_369" data-name="Ellipse 369" cx="13.683" cy="13.683" r="13.683" transform="translate(530.066 187.62)" fill="#f5ebdd"/>
      <rect id="Rectangle_126" data-name="Rectangle 126" width="232.059" height="15.784" transform="translate(466.081 410.21)" fill="#f5ebdd"/>
      <path id="Path_2050" data-name="Path 2050" d="M753.383,135h-7.314A104.469,104.469,0,0,0,641.6,239.469V425.994H857.875V239.469A104.5,104.5,0,0,0,753.383,135ZM741.829,410.21H657.368V278.656h84.461Zm0-147.338H657.368V240.007a89.222,89.222,0,0,1,84.457-89.092ZM842.068,410.21H757.613V278.656h84.455Zm0-147.338H757.613V150.915a89.217,89.217,0,0,1,84.455,89.092Z" transform="translate(-167.607)" fill="#f5ebdd"/>
      <circle id="Ellipse_370" data-name="Ellipse 370" cx="21.046" cy="21.046" r="21.046" transform="translate(274.86 591.755)" fill="#f49935"/>
      <path id="Path_2051" data-name="Path 2051" d="M1156.36,692.8a4.158,4.158,0,0,1-.348,1.689c-1.629,3.709-8.59,4.257-15.513,1.222-5.8-2.536-9.741-6.782-9.909-10.273h0v46.305h25.786V692.8Z" transform="translate(-391.085 -251.562)" fill="#ffbe21"/>
      <path id="Path_2052" data-name="Path 2052" d="M1146.439,678c-6.923-3.035-13.873-2.487-15.513,1.222a4.235,4.235,0,0,0-.342,1.933c.168,3.491,4.11,7.737,9.909,10.273,6.923,3.035,13.873,2.487,15.513-1.222a4.16,4.16,0,0,0,.347-1.689C1156.37,684.982,1152.379,680.594,1146.439,678Z" transform="translate(-391.079 -247.265)" fill="#a15842"/>
      <path id="Path_2053" data-name="Path 2053" d="M1192.765,727.13c-.168,3.491-4.11,7.738-9.909,10.279-6.928,3.03-13.873,2.487-15.518-1.227a4.224,4.224,0,0,1-.348-1.683h0v16.289h25.781V727.13Z" transform="translate(-407.721 -270.615)" fill="#ffbe21"/>
      <path id="Path_2054" data-name="Path 2054" d="M1192.423,720.891c-1.629-3.709-8.59-4.257-15.518-1.222-5.935,2.6-9.926,6.983-9.915,10.523a4.223,4.223,0,0,0,.348,1.683c1.629,3.714,8.59,4.257,15.518,1.227,5.8-2.541,9.741-6.787,9.909-10.279a4.236,4.236,0,0,0-.342-1.933Z" transform="translate(-407.721 -266.309)" fill="#a15842"/>
      <line id="Line_471" data-name="Line 471" y1="15.784" transform="translate(760.024 464.41)" fill="none" stroke="#a15842" stroke-linecap="round" stroke-miterlimit="10" stroke-width="4"/>
      <line id="Line_472" data-name="Line 472" y2="8.948" transform="translate(752.395 427.308)" fill="none" stroke="#30242a" stroke-linecap="round" stroke-linejoin="round" stroke-width="4"/>
      <line id="Line_473" data-name="Line 473" y2="9.47" transform="translate(772.159 449.939)" fill="none" stroke="#30242a" stroke-linecap="round" stroke-linejoin="round" stroke-width="4"/>
      <path id="Path_2055" data-name="Path 2055" d="M947.5,1013.567h0a4.159,4.159,0,0,1-3.953-5.462l13.032-39.714a4.17,4.17,0,0,1,3.958-2.861h9.133a4.159,4.159,0,0,1,3.633,6.19l-22.186,39.714a4.154,4.154,0,0,1-3.616,2.134Z" transform="translate(-305.506 -379.569)" fill="#30242a"/>
      <path id="Path_2056" data-name="Path 2056" d="M1250.36,1013.567h0a4.159,4.159,0,0,0,3.953-5.462l-13.031-39.714a4.17,4.17,0,0,0-3.953-2.861h-9.138a4.165,4.165,0,0,0-3.633,6.19l22.186,39.714a4.164,4.164,0,0,0,3.616,2.134Z" transform="translate(-433.79 -379.569)" fill="#30242a"/>
      <rect id="Rectangle_127" data-name="Rectangle 127" width="214.168" height="122.605" transform="translate(622.552 480.194)" fill="#a15842"/>
      <rect id="Rectangle_128" data-name="Rectangle 128" width="182.593" height="91.036" transform="translate(638.336 495.979)" fill="#f49935"/>
      <line id="Line_474" data-name="Line 474" y2="94.191" transform="translate(729.438 494.404)" fill="none" stroke="#a15842" stroke-miterlimit="10" stroke-width="4"/>
      <circle id="Ellipse_371" data-name="Ellipse 371" cx="5.517" cy="5.517" r="5.517" transform="translate(745.439 535.98)" fill="#30242a"/>
      <circle id="Ellipse_372" data-name="Ellipse 372" cx="5.517" cy="5.517" r="5.517" transform="translate(702.794 535.98)" fill="#30242a"/>
      <rect id="Rectangle_129" data-name="Rectangle 129" width="8.943" height="77.353" transform="translate(359.521 591.902) rotate(-90)" fill="#a15842"/>
      <path id="Path_2057" data-name="Path 2057" d="M510.105,940.736,490.943,825.76h11.718a4.735,4.735,0,1,0,0-9.47H414.8a4.735,4.735,0,0,0,0,9.47h11.625L407.265,940.736a3.974,3.974,0,0,0,3.92,4.626h0a3.969,3.969,0,0,0,3.882-3.128l25.39-116.475h36.456L502.3,942.234a3.98,3.98,0,0,0,3.888,3.128h0a3.975,3.975,0,0,0,3.92-4.626Z" transform="translate(-60.487 -311.363)" fill="#ffbe21"/>
      <path id="Path_2058" data-name="Path 2058" d="M505.064,825.76a4.735,4.735,0,0,0,0-9.47H417.2a4.735,4.735,0,0,0,0,9.47H428.83v.147h14.02l.033-.147h36.456l.033.147h14.02v-.147Z" transform="translate(-62.891 -311.363)" fill="#a15842"/>
      <path id="Path_2059" data-name="Path 2059" d="M589.631,871.078h55.927c.7-11.875,3.176-27.627,5.234-48.906,1.83-18.869,3.4-34.707,3.3-47.782-.174-21.8-55.927,4.583-55.927,4.583,0,4.762.961,9.334.988,13.765.065,11.511-5.766,21.307-9.931,35.19-6.315,21.051-1.053,43.151-1.053,43.151Z" transform="translate(-142.25 -288.271)" fill="#455955"/>
      <path id="Path_2060" data-name="Path 2060" d="M658.117,1031.15H609.156a2.992,2.992,0,0,0,.9,5.843l72.048.1c.635-7-3.345-12.277-14.574-20.09C661.125,1022.555,658.117,1031.15,658.117,1031.15Z" transform="translate(-151.828 -403.091)" fill="#3ec1f3"/>
      <path id="Path_2061" data-name="Path 2061" d="M664.65,989.122a21.214,21.214,0,0,1-5.913-5.723c-3.8-5.576-4.6-13.086-3.98-23.679H606.29A197.037,197.037,0,0,0,608,983.4c1.238,8.889,2.91,15,4.252,21.431h-2.547a2.959,2.959,0,0,0-.907.141h48.961s3.008-8.6,9.415-14.117Q665.969,990,664.65,989.122Z" transform="translate(-151.47 -376.913)" fill="#a15842"/>
      <path id="Path_2062" data-name="Path 2062" d="M657.285,885.562a63.835,63.835,0,0,1-6.054-18.966c-3.546-24.635-1.444-37.265-11.441-48.325H610.54" transform="translate(-153.412 -312.268)" fill="none" stroke="#30242a" stroke-linecap="round" stroke-linejoin="round" stroke-width="4"/>
      <path id="Path_2063" data-name="Path 2063" d="M587.772,830.277l.054.13L631,810.187c-3.361-10.056-6.874-23.435-12.646-40.946-5.408-16.387-8.986-28.631-12.375-38.106a23.408,23.408,0,0,1-30.575-35.2c-23.049-10.414-104.915-17.207-104.915-17.207l-46.311-6.841c-2.443,4.04-4.523,10.441-5.652,17.918h16.181v17.3A13.222,13.222,0,0,1,421.5,720.3h-1.569c4.42,16.289,15.79,30.01,39,30.01h93.664c10,11.05,7.895,23.679,11.441,48.325,2.9,20.161,16.642,35.022,16.642,35.022Z" transform="translate(-65.66 -245.369)" fill="#455955"/>
      <path id="Path_2064" data-name="Path 2064" d="M813.891,991.579l-43,19.5a3.54,3.54,0,0,0,3.551,6.1l65.255-30.407c-2.557-7.059-9.133-9.774-24.711-12.488l-.668-.125A44.377,44.377,0,0,0,813.891,991.579Z" transform="translate(-226.003 -383.513)" fill="#3ec1f3"/>
      <path id="Path_2065" data-name="Path 2065" d="M796.466,952.416a24.813,24.813,0,0,1-10.909-4.61c-5.354-4.17-8.633-10.957-12.06-21.176L730.32,946.851a191.743,191.743,0,0,0,13.688,24.977c4.273,6.722,8.351,12.581,11.093,16.507l-1.558.755a3.369,3.369,0,0,0-.5.3l43-19.5A44.379,44.379,0,0,1,796.466,952.416Z" transform="translate(-208.154 -361.79)" fill="#a15842"/>
      <path id="Path_2066" data-name="Path 2066" d="M718.87,755.8a23.288,23.288,0,0,0,13.672-4.425c-6.738-18.939-12.581-26.829-30.249-35.049l-.326-.147a23.408,23.408,0,0,0,16.9,39.61Z" transform="translate(-192.219 -265.611)" fill="#3ec1f3"/>
      <path id="Path_2067" data-name="Path 2067" d="M420.738,735.361a13.222,13.222,0,0,0,13.222-13.216v-17.3H417.779a76.014,76.014,0,0,0,1.39,30.5h.646Z" transform="translate(-64.898 -260.428)" fill="#3ec1f3"/>
      <line id="Line_475" data-name="Line 475" x2="15.784" transform="translate(486.134 506.241)" fill="none" stroke="#30242a" stroke-linecap="round" stroke-linejoin="round" stroke-width="4"/>
      <path id="Path_2068" data-name="Path 2068" d="M736.827,473.114s-28.414-32.622-61.987-44.454" transform="translate(-182.799 -134.208)" fill="none" stroke="#30242a" stroke-linecap="round" stroke-linejoin="round" stroke-width="4"/>
      <path id="Path_2069" data-name="Path 2069" d="M620.971,423.023c-1.032-2.492,2.411-6.4,8.145-9.7-7.765-1.933-13.281-5.533-12.727-8.557s6.983-4.447,14.932-3.513c-4.181-5.1-6.022-9.98-4.175-11.946,2.351-2.514,9.812.657,16.659,7.059,5.973,5.593,9.5,11.815,8.753,14.981-.418,3.225-5.918,7.8-13.477,10.925C630.386,425.874,622.29,426.21,620.971,423.023Z" transform="translate(-156.067 -115.828)" fill="#4756df"/>
      <g id="Group_555" data-name="Group 555" transform="translate(460.282 272.614)" clip-path="url(#clip-path)">
        <circle id="Ellipse_373" data-name="Ellipse 373" cx="9.915" cy="9.915" r="9.915" transform="translate(26.574 13.204)" fill="#30242a"/>
      </g>
      <ellipse id="Ellipse_374" data-name="Ellipse 374" cx="5.261" cy="22.116" rx="5.261" ry="22.116" transform="translate(497.33 268.868) rotate(-20.37)" fill="#30242a"/>
      <path id="Path_2071" data-name="Path 2071" d="M721.13,458.2s4.214,11.576,2.107,23.679" transform="translate(-203.954 -147.709)" fill="none" stroke="#30242a" stroke-linecap="round" stroke-linejoin="round" stroke-width="4"/>
      <path id="Path_2072" data-name="Path 2072" d="M456.332,660.855l50.535,1.026s1.265-1.846,3.166-4.642L450.87,655.8Z" transform="translate(-80.44 -238.016)" fill="none"/>
      <path id="Path_2073" data-name="Path 2073" d="M537.446,373.28c-8.981,10.1-18.526,12.337-18.526,12.337-6.174-6.733-17.375-6.733-19.086,2.807-1.862,10.572,11.213,13.482,11.213,13.482s3.3,13.64-1.759,20.378c-4.463,5.973-10.2,6.956-21.947,8.27,15.312,25.873,30.95,23.831,36.157,23.831,12.489,0,16.007-14.492,16.99-21.964a74.331,74.331,0,0,0-8.688-2.449l-1.683-10.1s7.857,2.8,14.6-1.124,8.422-11.229,6.174-22.452c-1.33-6.651-1.281-14.878-2.422-22.23C544.016,374.822,537.446,373.28,537.446,373.28Z" transform="translate(-97.108 -108.899)" fill="#a15842"/>
      <path id="Path_2074" data-name="Path 2074" d="M693.852,446.094c-2.384-9.54-21.046-14.715-21.046-14.715s1.119-21.415-3.687-22.1c-3.681-.543-7.368,8.422-10.523,25.786-3.529,19.406-1.58,55.248-1.58,55.248s-3.9-3.546-9.442-8.481a6.831,6.831,0,0,1-5.973,3.8,6.831,6.831,0,0,1-5.229,11.061,6.831,6.831,0,0,1-5.229,11.06,6.831,6.831,0,0,1-5.973,11.033c11.527,7.5,27.2,16.257,37.639,16.257C717.531,535.024,695.432,452.409,693.852,446.094Z" transform="translate(-160.099 -125.341)" fill="#a15842"/>
      <path id="Path_2075" data-name="Path 2075" d="M533.754,546.649a6.842,6.842,0,0,0-.809-7.151,6.831,6.831,0,0,0,5.229-11.06,6.831,6.831,0,0,0,5.229-11.061,6.831,6.831,0,0,0,5.973-3.8c-9.546-8.5-23.94-21.111-31.6-26.774a47.943,47.943,0,0,0-12.488-6.174c-.956,7.493-4.452,21.964-16.941,21.964-5.185,0-20.845,2.042-36.157-23.831l-4.919.543c-16.941,1.884-24.651,11-29.191,21.893-2.807,6.738-5.055,19.086-5.055,19.086a230.8,230.8,0,0,0-2.682,34.208l22.029,20.389,59.141,1.461c4.735-6.983,13.422-19.879,16.289-24.825a31.74,31.74,0,0,0,4.208-11.576s6.32,4.941,14.981,10.583A6.831,6.831,0,0,0,533.754,546.649Z" transform="translate(-61.917 -157.105)" fill="#ffbe21"/>
      <path id="Path_2076" data-name="Path 2076" d="M496.443,342.774c-6.733-8.416-25.259-14.031-39.855-3.366s-13.471,28.067-12.912,34.8c0,0-15.714-5.055-26.943,6.733a28.414,28.414,0,0,0-7.3,25.824s-20.677-.581-24.7,18.526c-2.286,10.86,1.982,18.087,6.717,22.561a30.239,30.239,0,0,0,9.562,6.065s2.248-12.347,5.055-19.086c4.539-10.892,12.25-20.009,29.191-21.893l4.919-.543c11.75-1.314,17.484-2.313,21.947-8.27,5.05-6.738,1.738-20.378,1.738-20.378s-13.091-2.91-11.229-13.471c1.689-9.54,12.912-9.54,19.086-2.807,0,0,9.546-2.243,18.526-12.347,0,0,6.57,1.542,11.05.787C500.532,350.853,499.185,346.211,496.443,342.774Z" transform="translate(-49.925 -90.745)" fill="#30242a"/>
      <path id="Path_2077" data-name="Path 2077" d="M734.617,468.717c-1.591-.733-2.541-2.579-2.27-6.109,0,0-3.29,4.127-6.793,2.291s-2.1-5.788-2.1-5.788-3.16,2.107-5.788-.543c-2.384-2.384-.543-6.315-.543-6.315s-3.5,1.428-4.735-1.053c-1.558-3.106.337-6.358,2.389-8.851" transform="translate(-199.697 -140.465)" fill="none" stroke="#30242a" stroke-linecap="round" stroke-linejoin="round" stroke-width="8"/>
      <path id="Path_2078" data-name="Path 2078" d="M428.92,469.23a25.172,25.172,0,0,0,3.171,7.955" transform="translate(-70.408 -152.75)" fill="none" stroke="#000" stroke-linecap="round" stroke-miterlimit="10" stroke-width="4"/>
      <line id="Line_476" data-name="Line 476" x2="1.319" y2="16.403" transform="translate(495.864 365.653)" fill="none" stroke="#30242a" stroke-linecap="round" stroke-linejoin="round" stroke-width="4"/>
      <path id="Path_2079" data-name="Path 2079" d="M594.18,558c3.437,6.19,3.394,13.618,2.948,18.021" transform="translate(-145.936 -193.319)" fill="none" stroke="#30242a" stroke-linecap="round" stroke-linejoin="round" stroke-width="4"/>
      <line id="Line_477" data-name="Line 477" x1="16.838" y2="0.527" transform="translate(400.359 382.056)" fill="none" stroke="#30242a" stroke-linecap="round" stroke-linejoin="round" stroke-width="4"/>
      <path id="Path_2080" data-name="Path 2080" d="M559.8,458.317a63.1,63.1,0,0,1-6.874-3.187" transform="translate(-127.083 -146.306)" fill="none" stroke="#30242a" stroke-linecap="round" stroke-linejoin="round" stroke-width="4"/>
      <line id="Line_478" data-name="Line 478" x1="0.918" y1="5.815" transform="translate(436.011 321.78)" fill="none" stroke="#30242a" stroke-linecap="round" stroke-linejoin="round" stroke-width="4"/>
      <line id="Line_479" data-name="Line 479" x2="1.167" y2="9.708" transform="translate(392.616 283.679)" fill="none" stroke="#000" stroke-linecap="round" stroke-miterlimit="10" stroke-width="4"/>
      <path id="Path_2081" data-name="Path 2081" d="M588.271,428.071a5.446,5.446,0,0,1-7.021-2.411" transform="translate(-140.026 -132.837)" fill="none" stroke="#30242a" stroke-linecap="round" stroke-linejoin="round" stroke-width="4"/>
      <line id="Line_480" data-name="Line 480" x1="5.261" y1="2.628" transform="translate(411.409 281.55)" fill="none" stroke="#30242a" stroke-linecap="round" stroke-linejoin="round" stroke-width="4"/>
      <path id="Path_2082" data-name="Path 2082" d="M574.207,405.45c-.842,1.146-4.811,3.366-7.8.831" transform="translate(-133.244 -123.601)" fill="none" stroke="#30242a" stroke-linecap="round" stroke-linejoin="round" stroke-width="4"/>
      <path id="Path_2083" data-name="Path 2083" d="M601.221,401.824a4.886,4.886,0,0,1-3.681-.684" transform="translate(-147.471 -121.631)" fill="none" stroke="#30242a" stroke-linecap="round" stroke-linejoin="round" stroke-width="4"/>
      <path id="Path_2084" data-name="Path 2084" d="M591.1,406c.6,1.363,1.184,2.867,1.059,3.442a3.2,3.2,0,0,1-1.184,1.748" transform="translate(-144.473 -123.852)" fill="none" stroke="#30242a" stroke-linecap="round" stroke-linejoin="round" stroke-width="4"/>
      <path id="Path_2085" data-name="Path 2085" d="M523.847,420.746l-7.184,6.776a3.128,3.128,0,0,0,1.086,5.218l8.492,3.014a3.128,3.128,0,0,0,4.143-3.361l-1.309-9.774a3.128,3.128,0,0,0-5.229-1.873Z" transform="translate(-110.06 -130.209)" fill="#f4e6d8"/>
      <path id="Path_2086" data-name="Path 2086" d="M716.613,423.635s3.681-2.107,6.841-1.053a5.7,5.7,0,0,1,4.17,6.179s6.852-2.471,8.183,4.773c0,0,6.179,1.385,4.789,7.564,0,0,5,.266,4.007,6.82s-5.365,12-7.993,12c-2.715,0-4.632-1.667-4.262-6.516,0,0-3.29,4.127-6.793,2.291s-2.1-5.788-2.1-5.788-3.16,2.107-5.788-.543c-2.384-2.384-.543-6.315-.543-6.315s-3.5,1.428-4.735-1.053c-2.633-5.262,4.61-10.919,5.788-12.624Z" transform="translate(-199.698 -131.296)" fill="#a15842"/>
      <path id="Path_2087" data-name="Path 2087" d="M717.77,450.458c3.616-3.318,9.774-9.578,12.695-16.148" transform="translate(-202.419 -136.791)" fill="none" stroke="#30242a" stroke-linecap="round" stroke-linejoin="round" stroke-width="4"/>
      <path id="Path_2088" data-name="Path 2088" d="M730,462.461A58.067,58.067,0,0,0,744.416,444" transform="translate(-208.008 -141.219)" fill="none" stroke="#30242a" stroke-linecap="round" stroke-linejoin="round" stroke-width="4"/>
      <path id="Path_2089" data-name="Path 2089" d="M747.13,472.74c1.629-1.987,7.325-9.128,10.148-14.78" transform="translate(-215.837 -147.599)" fill="none" stroke="#30242a" stroke-linecap="round" stroke-linejoin="round" stroke-width="4"/>
      <path id="Path_2090" data-name="Path 2090" d="M668.544,647.081H577.41l20.715-65.445A9.518,9.518,0,0,1,607.2,575h77.011a9.518,9.518,0,0,1,9.079,12.391L676.162,641.51A8,8,0,0,1,668.544,647.081Z" transform="translate(-138.271 -201.089)" fill="#30242a"/>
      <path id="Path_2091" data-name="Path 2091" d="M479.777,694.18a5.658,5.658,0,0,0,5.392,7.368H623.8a7.993,7.993,0,0,0,7.6-5.582l.543-1.786Z" transform="translate(-93.53 -255.556)" fill="#30242a"/>
      <path id="Path_2092" data-name="Path 2092" d="M700.751,630.45c-2.118-2.9-11.745,4.756-12.45,5.392-.369-.635-5.376-8.291-9.052-5.392-3.187,2.514,3.8,13.737,5.685,16.6a.831.831,0,0,0,1.238,0C689.6,644.161,702.591,632.937,700.751,630.45Z" transform="translate(-184.438 -226.132)" fill="#ffbe21"/>
      <ellipse id="Ellipse_375" data-name="Ellipse 375" cx="4.659" cy="1.526" rx="4.659" ry="1.526" transform="translate(503.215 405.808) rotate(-72.7)" fill="#ffbe21"/>
      <path id="Path_2093" data-name="Path 2093" d="M380.786,544.327a6.847,6.847,0,0,0,7.059-1.314,6.825,6.825,0,0,0,11.4,4.442,6.831,6.831,0,0,0,11.4,4.436,6.82,6.82,0,0,0,8.644,5.973l8.21-22.05a70.23,70.23,0,0,0,4.414-26.492L431.088,480s-18.945,1.575-29.994,15.258c-5.669,7.021-16.794,25.569-23.924,45.735A6.825,6.825,0,0,0,380.786,544.327Z" transform="translate(-46.758 -157.672)" fill="#ffbe21"/>
      <path id="Path_2094" data-name="Path 2094" d="M409.42,608.988a6.825,6.825,0,0,1-4.344-5.756,6.831,6.831,0,0,1-11.4-4.436,6.825,6.825,0,0,1-11.4-4.442,6.831,6.831,0,0,1-10.718-2.014c-6.179,17.479-9.361,36.179-3.377,49.639,12.879,28.99,51.534,18.787,60.656,16.1s26.845-11.81,38.655-10.2,25.227,7.515,27.377,0c0,0,7.227-.185,4.952-7.059,0,0,3.633-.451,4.17-3.133,1.086-5.37-11.81-10.2-11.81-10.2s10.2,1.629,12.347-.543c2.715-2.715.076-7.1-16.588-11.137-18.3-4.431-42.461-1.748-78.428,4.691l4.208-11.31A6.771,6.771,0,0,1,409.42,608.988Z" transform="translate(-41.189 -209.013)" fill="#a15842"/>
      <line id="Line_481" data-name="Line 481" x1="12.016" y2="35.077" transform="translate(368.872 375.215)" fill="none" stroke="#30242a" stroke-linecap="round" stroke-linejoin="round" stroke-width="4"/>
      <path id="Path_2095" data-name="Path 2095" d="M585.777,652.042c-5.832-2.215-15.54-5.614-23.077-6.841" transform="translate(-131.549 -233.171)" fill="none" stroke="#30242a" stroke-linecap="round" stroke-linejoin="round" stroke-width="4"/>
      <path id="Path_2096" data-name="Path 2096" d="M588.745,672.162c-7.493-3.372-21.806-9.491-29.505-10.642" transform="translate(-129.967 -240.63)" fill="none" stroke="#30242a" stroke-linecap="round" stroke-linejoin="round" stroke-width="4"/>
      <path id="Path_2097" data-name="Path 2097" d="M433.068,642.14c-4.04.652-10.382,1.732-16.718,3" transform="translate(-64.664 -231.773)" fill="none" stroke="#30242a" stroke-linecap="round" stroke-linejoin="round" stroke-width="4"/>
      <path id="Path_2098" data-name="Path 2098" d="M582.066,687.467c-5.62-2.862-17.462-8.552-25.786-10.137" transform="translate(-128.614 -247.855)" fill="none" stroke="#30242a" stroke-linecap="round" stroke-linejoin="round" stroke-width="4"/>
      <path id="Path_2099" data-name="Path 2099" d="M1029.032,568.4a17.307,17.307,0,0,1-15.464,9.6c-11.2,0-15.486-9.6-15.486-9.6s-31.493,72-.543,109.867h32C1060.471,640.4,1029.032,568.4,1029.032,568.4Z" transform="translate(-324.056 -198.072)" fill="#455955"/>
      <path id="Path_2100" data-name="Path 2100" d="M1025.436,578a17.306,17.306,0,0,0,15.464-9.6h-30.95A17.347,17.347,0,0,0,1025.436,578Z" transform="translate(-335.951 -198.072)" fill="#30242a"/>
      <path id="Path_2101" data-name="Path 2101" d="M1046.4,686.45c-17.408.31-38.009,6.6-53.864,28.778" transform="translate(-327.994 -252.023)" fill="none" stroke="#f5ebdd" stroke-linecap="round" stroke-linejoin="round" stroke-width="4"/>
      <path id="Path_2102" data-name="Path 2102" d="M987.41,651.2c11.685-2.851,33.811-5.565,55.259-.461" transform="translate(-325.649 -234.394)" fill="none" stroke="#f5ebdd" stroke-linecap="round" stroke-linejoin="round" stroke-width="4"/>
      <path id="Path_2103" data-name="Path 2103" d="M1071.564,720.49c-7.786.092-22.181,8.916-20.6,26.7" transform="translate(-354.642 -267.58)" fill="none" stroke="#f5ebdd" stroke-linecap="round" stroke-linejoin="round" stroke-width="4"/>
      <path id="Path_2104" data-name="Path 2104" d="M1022.571,532.624c-.326-7.737-2.384-38.486-14.6-56.524" transform="translate(-335.046 -155.889)" fill="none" stroke="#30242a" stroke-linecap="round" stroke-miterlimit="10" stroke-width="4"/>
      <ellipse id="Ellipse_376" data-name="Ellipse 376" cx="5.566" cy="24.754" rx="5.566" ry="24.754" transform="translate(639.509 332.729) rotate(-59.46)" fill="#30242a"/>
      <ellipse id="Ellipse_377" data-name="Ellipse 377" cx="4.778" cy="13.694" rx="4.778" ry="13.694" transform="translate(662.692 254.928) rotate(-29.69)" fill="#30242a"/>
      <path id="Path_2105" data-name="Path 2105" d="M947.282,429.112c1.232-2.742,7.031-2.943,14.079-.842-4.344-7.77-5.674-15-2.8-16.859s8.943,2.259,14.27,9.41c.939-7.292,3.481-12.489,6.516-12.521,3.833,0,6.972,8.454,7.01,18.912a46.485,46.485,0,0,1-.793,8.916,11.033,11.033,0,0,0-15.627,9.909,46.764,46.764,0,0,1-8.188-2.834C952.175,438.919,945.713,432.615,947.282,429.112Z" transform="translate(-307.203 -124.904)" fill="#4756df"/>
      <path id="Path_2106" data-name="Path 2106" d="M994.178,459.5a11.017,11.017,0,0,1,10.6-.776c-.934,4.86-2.623,8.465-4.653,9.638-1.933,1.406-6.027,1.461-10.974.272A11.034,11.034,0,0,1,994.178,459.5Z" transform="translate(-326.445 -147.49)" fill="#30242a"/>
      <path id="Path_2107" data-name="Path 2107" d="M1042.36,516.925c1.5-8.547,9.3-50.448,21.79-74.155" transform="translate(-350.763 -140.657)" fill="none" stroke="#30242a" stroke-linecap="round" stroke-miterlimit="10" stroke-width="4"/>
      <ellipse id="Ellipse_378" data-name="Ellipse 378" cx="5.278" cy="29.875" rx="5.278" ry="29.875" transform="translate(697.075 346.788) rotate(-72.05)" fill="#30242a"/>
      <path id="Path_2108" data-name="Path 2108" d="M1073.635,375.111c3-.272,6.016,4.686,7.64,11.859,4.626-7.6,10.284-12.3,13.319-10.713s2.416,8.9-1.205,17.05c6.82-2.753,12.614-3.1,14.117-.483,1.89,3.334-3.947,10.224-13.031,15.383a46.642,46.642,0,0,1-8.145,3.681,11.039,11.039,0,0,0-16.29-8.758,47.358,47.358,0,0,1-1.547-8.53C1067.489,384.184,1069.818,375.459,1073.635,375.111Z" transform="translate(-362.599 -109.731)" fill="#4756df"/>
      <path id="Path_2109" data-name="Path 2109" d="M1081.855,425.478a11.033,11.033,0,0,1,5.88,8.856c-4.7,1.569-8.688,1.868-10.686.673-2.172-.994-4.23-4.539-5.62-9.432A11.022,11.022,0,0,1,1081.855,425.478Z" transform="translate(-364.048 -132.177)" fill="#30242a"/>
      <path id="Path_2110" data-name="Path 2110" d="M1118.557,466.67v.043a11.044,11.044,0,0,0,6.581,21v.043c-14.307,4.48-27.382,3.394-29.207-2.432S1104.25,471.15,1118.557,466.67Z" transform="translate(-375.149 -151.58)" fill="#4756df"/>
      <path id="Path_2111" data-name="Path 2111" d="M1128.8,484.967a5.359,5.359,0,0,0-3.22-10.192,11.044,11.044,0,0,1,6.635-8.025l6.581,21A11.049,11.049,0,0,1,1128.8,484.967Z" transform="translate(-388.796 -151.616)" fill="#ffb7d5"/>
      <path id="Path_2112" data-name="Path 2112" d="M1131.711,485.037a5.359,5.359,0,0,1-3.095,6.57,11.044,11.044,0,0,1-3.22-10.192,5.365,5.365,0,0,1,6.315,3.622Z" transform="translate(-388.612 -158.257)" fill="#30242a"/>
    </g>
  </g>
</svg>
