<svg xmlns="http://www.w3.org/2000/svg" width="75.047" height="65.959" viewBox="0 0 75.047 65.959">
  <g id="graduation-hat" transform="translate(0 0)">
    <path id="Path_2196" data-name="Path 2196" d="M139.37,125.8v17.061c0,7.124-12.445,10.993-24.185,10.993S91,149.985,91,142.862V125.8a2.2,2.2,0,0,1,2.2-2.2h43.973A2.2,2.2,0,0,1,139.37,125.8Zm0,0" transform="translate(-77.662 -105.485)" fill="#455955"/>
    <path id="Path_2197" data-name="Path 2197" d="M280.185,125.8v17.061c0,7.124-12.445,10.993-24.185,10.993V123.6h21.986A2.2,2.2,0,0,1,280.185,125.8Zm0,0" transform="translate(-218.477 -105.485)" fill="#030e0c"/>
    <path id="Path_2198" data-name="Path 2198" d="M83.241,15.39a2.2,2.2,0,0,1-1.407,2.066L46.509,30.649a2.433,2.433,0,0,1-1.583,0L9.6,17.457V13.324L44.926.132a2.443,2.443,0,0,1,1.583,0L81.833,13.324a2.2,2.2,0,0,1,1.407,2.067Zm0,0" transform="translate(-8.194 0)" fill="#6f8585"/>
    <path id="Path_2199" data-name="Path 2199" d="M293.523,15.39a2.2,2.2,0,0,1-1.407,2.066L256.791,30.649a2.48,2.48,0,0,1-.791.132V0a2.5,2.5,0,0,1,.791.132l35.325,13.192a2.2,2.2,0,0,1,1.407,2.067Zm0,0" transform="translate(-218.477 0)" fill="#455955"/>
    <path id="Path_2200" data-name="Path 2200" d="M39.722,92.2a2.177,2.177,0,0,1-2.2,2.2H4.4v32.627l4.265,12.84a2.183,2.183,0,1,1-4.133,1.407l-.132-.4a2.262,2.262,0,0,1-2.2,1.891,2.177,2.177,0,0,1-2.2-2.2V92.2A2.177,2.177,0,0,1,2.2,90H37.523a2.177,2.177,0,0,1,2.2,2.2Zm0,0" transform="translate(0 -76.808)" fill="#f49935"/>
  </g>
</svg>
