<svg xmlns="http://www.w3.org/2000/svg" width="339.999" height="768" viewBox="0 0 339.999 768">
  <path id="Subtraction_3" data-name="Subtraction 3" d="M400.578,1279H204V511H400.577a393.114,393.114,0,0,1,46.474,54.489,471.7,471.7,0,0,1,40.418,68.967,547.67,547.67,0,0,1,30.518,79.157,609.789,609.789,0,0,1,19.287,87.473A655.174,655.174,0,0,1,544,895a655.17,655.17,0,0,1-6.725,93.915,609.787,609.787,0,0,1-19.287,87.473,547.65,547.65,0,0,1-30.518,79.156,471.774,471.774,0,0,1-40.418,68.968A393.3,393.3,0,0,1,400.578,1279Z" transform="translate(-204 -511)" fill="#edf1f1" opacity="0.5"/>
</svg>
