<svg xmlns="http://www.w3.org/2000/svg" width="28" height="28.779" viewBox="0 0 28 28.779">
  <path id="cog-outline" d="M16.271,10.634a5.756,5.756,0,1,1-5.756,5.756,5.756,5.756,0,0,1,5.756-5.756m0,2.878a2.878,2.878,0,1,0,2.878,2.878,2.878,2.878,0,0,0-2.878-2.878M13.393,30.779a.727.727,0,0,1-.719-.6l-.532-3.813a9.994,9.994,0,0,1-2.432-1.425L6.126,26.39a.723.723,0,0,1-.878-.317L2.37,21.095a.709.709,0,0,1,.173-.921l3.036-2.389-.1-1.4.1-1.439L2.543,12.605a.709.709,0,0,1-.173-.921L5.248,6.705a.707.707,0,0,1,.878-.317L9.709,7.828a10.43,10.43,0,0,1,2.432-1.41L12.673,2.6a.727.727,0,0,1,.719-.6h5.756a.727.727,0,0,1,.719.6L20.4,6.418a10.43,10.43,0,0,1,2.432,1.41l3.583-1.439a.707.707,0,0,1,.878.317l2.878,4.979a.709.709,0,0,1-.173.921l-3.036,2.345.1,1.439-.1,1.439L30,20.174a.709.709,0,0,1,.173.921l-2.878,4.979a.707.707,0,0,1-.878.317l-3.583-1.439a10.43,10.43,0,0,1-2.432,1.41l-.532,3.813a.727.727,0,0,1-.719.6H13.393m1.8-25.9-.532,3.756a7.9,7.9,0,0,0-4.36,2.561L6.831,9.7,5.752,11.569,8.788,13.8a7.986,7.986,0,0,0,0,5.18L5.738,21.224,6.817,23.1l3.5-1.5a7.834,7.834,0,0,0,4.331,2.533l.532,3.77h2.187l.532-3.756A7.94,7.94,0,0,0,22.228,21.6l3.5,1.5L26.8,21.224l-3.051-2.23a8.029,8.029,0,0,0,0-5.195l3.036-2.23L25.71,9.7l-3.468,1.5a7.8,7.8,0,0,0-4.36-2.547l-.532-3.77Z" transform="translate(-2.271 -2)" fill="#455955"/>
</svg>
